<svg xmlns="http://www.w3.org/2000/svg" width="1200" height="500" viewBox="0 0 1200 500">
<rect width="100%" height="100%" fill="white"/>
<text x="80" y="28" font-size="18" font-family="Arial">Anomaly Overlay | anomaly_memory_1.csv</text>
<rect x="80" y="45" width="1090" height="395" fill="none" stroke="#444" stroke-width="1"/>
<polyline points="80.00,440.00 93.29,435.18 106.59,430.37 119.88,425.55 133.17,420.73 146.46,415.91 159.76,411.10 173.05,406.28 186.34,401.46 199.63,396.65 212.93,391.83 226.22,387.01 239.51,382.20 252.80,377.38 266.10,372.56 279.39,367.74 292.68,362.93 305.98,358.11 319.27,353.29 332.56,348.48 345.85,343.66 359.15,338.84 372.44,334.02 385.73,329.21 399.02,324.39 412.32,319.57 425.61,314.76 438.90,309.94 452.20,305.12 465.49,300.30 478.78,295.49 492.07,290.67 505.37,285.85 518.66,281.04 531.95,276.22 545.24,271.40 558.54,266.59 571.83,261.77 585.12,256.95 598.41,252.13 611.71,247.32 625.00,242.50 638.29,237.68 651.59,232.87 664.88,228.05 678.17,223.23 691.46,218.41 704.76,213.60 718.05,208.78 731.34,203.96 744.63,199.15 757.93,194.33 771.22,189.51 784.51,184.70 797.80,179.88 811.10,175.06 824.39,170.24 837.68,165.43 850.98,160.61 864.27,155.79 877.56,150.98 890.85,146.16 904.15,141.34 917.44,136.52 930.73,131.71 944.02,126.89 957.32,122.07 970.61,117.26 983.90,112.44 997.20,107.62 1010.49,102.80 1023.78,97.99 1037.07,93.17 1050.37,88.35 1063.66,83.54 1076.95,78.72 1090.24,73.90 1103.54,69.09 1116.83,64.27 1130.12,59.45 1143.41,54.63 1156.71,49.82 1170.00,45.00" fill="none" stroke="#1f77b4" stroke-width="1.5"/>
<circle cx="80.00" cy="440.00" r="2.6" fill="red"/>
<circle cx="93.29" cy="435.18" r="2.6" fill="red"/>
<circle cx="106.59" cy="430.37" r="2.6" fill="red"/>
<circle cx="119.88" cy="425.55" r="2.6" fill="red"/>
<circle cx="133.17" cy="420.73" r="2.6" fill="red"/>
<circle cx="146.46" cy="415.91" r="2.6" fill="red"/>
<circle cx="159.76" cy="411.10" r="2.6" fill="red"/>
<circle cx="173.05" cy="406.28" r="2.6" fill="red"/>
<circle cx="292.68" cy="362.93" r="2.6" fill="red"/>
<circle cx="305.98" cy="358.11" r="2.6" fill="red"/>
<circle cx="319.27" cy="353.29" r="2.6" fill="red"/>
<circle cx="332.56" cy="348.48" r="2.6" fill="red"/>
<circle cx="345.85" cy="343.66" r="2.6" fill="red"/>
<circle cx="359.15" cy="338.84" r="2.6" fill="red"/>
<circle cx="372.44" cy="334.02" r="2.6" fill="red"/>
<circle cx="385.73" cy="329.21" r="2.6" fill="red"/>
<circle cx="399.02" cy="324.39" r="2.6" fill="red"/>
<circle cx="412.32" cy="319.57" r="2.6" fill="red"/>
<circle cx="425.61" cy="314.76" r="2.6" fill="red"/>
<circle cx="438.90" cy="309.94" r="2.6" fill="red"/>
<circle cx="452.20" cy="305.12" r="2.6" fill="red"/>
<circle cx="465.49" cy="300.30" r="2.6" fill="red"/>
<circle cx="478.78" cy="295.49" r="2.6" fill="red"/>
<circle cx="824.39" cy="170.24" r="2.6" fill="red"/>
<circle cx="837.68" cy="165.43" r="2.6" fill="red"/>
<circle cx="850.98" cy="160.61" r="2.6" fill="red"/>
<circle cx="864.27" cy="155.79" r="2.6" fill="red"/>
<circle cx="877.56" cy="150.98" r="2.6" fill="red"/>
<circle cx="890.85" cy="146.16" r="2.6" fill="red"/>
<circle cx="904.15" cy="141.34" r="2.6" fill="red"/>
<circle cx="917.44" cy="136.52" r="2.6" fill="red"/>
<circle cx="930.73" cy="131.71" r="2.6" fill="red"/>
<circle cx="944.02" cy="126.89" r="2.6" fill="red"/>
<circle cx="957.32" cy="122.07" r="2.6" fill="red"/>
<circle cx="970.61" cy="117.26" r="2.6" fill="red"/>
<circle cx="983.90" cy="112.44" r="2.6" fill="red"/>
<circle cx="997.20" cy="107.62" r="2.6" fill="red"/>
<circle cx="1010.49" cy="102.80" r="2.6" fill="red"/>
<circle cx="1023.78" cy="97.99" r="2.6" fill="red"/>
<circle cx="1037.07" cy="93.17" r="2.6" fill="red"/>
<circle cx="1050.37" cy="88.35" r="2.6" fill="red"/>
<circle cx="1063.66" cy="83.54" r="2.6" fill="red"/>
<circle cx="1076.95" cy="78.72" r="2.6" fill="red"/>
<circle cx="1090.24" cy="73.90" r="2.6" fill="red"/>
<circle cx="1103.54" cy="69.09" r="2.6" fill="red"/>
<circle cx="1116.83" cy="64.27" r="2.6" fill="red"/>
<circle cx="1130.12" cy="59.45" r="2.6" fill="red"/>
<circle cx="1143.41" cy="54.63" r="2.6" fill="red"/>
<circle cx="1156.71" cy="49.82" r="2.6" fill="red"/>
<circle cx="1170.00" cy="45.00" r="2.6" fill="red"/>
<text x="625" y="482" font-size="13" text-anchor="middle" font-family="Arial">timestamp / row index</text>
<text x="20" y="242" font-size="13" text-anchor="middle" transform="rotate(-90 20 242)" font-family="Arial">Time</text>
<line x1="930" y1="20" x2="960" y2="20" stroke="#1f77b4" stroke-width="2"/><text x="965" y="24" font-size="12" font-family="Arial">signal</text>
<circle cx="945" cy="38" r="3" fill="red"/><text x="965" y="42" font-size="12" font-family="Arial">flagged anomaly</text>
</svg>