<svg xmlns="http://www.w3.org/2000/svg" width="1200" height="500" viewBox="0 0 1200 500">
<rect width="100%" height="100%" fill="white"/>
<text x="80" y="28" font-size="18" font-family="Arial">Anomaly Overlay | anomaly_threads_1.csv</text>
<rect x="80" y="45" width="1090" height="395" fill="none" stroke="#444" stroke-width="1"/>
<polyline points="80.00,440.00 92.98,435.30 105.95,430.60 118.93,425.89 131.90,421.19 144.88,416.49 157.86,411.79 170.83,407.08 183.81,402.38 196.79,397.68 209.76,392.98 222.74,388.27 235.71,383.57 248.69,378.87 261.67,374.17 274.64,369.46 287.62,364.76 300.60,360.06 313.57,355.36 326.55,350.65 339.52,345.95 352.50,341.25 365.48,336.55 378.45,331.85 391.43,327.14 404.40,322.44 417.38,317.74 430.36,313.04 443.33,308.33 456.31,303.63 469.29,298.93 482.26,294.23 495.24,289.52 508.21,284.82 521.19,280.12 534.17,275.42 547.14,270.71 560.12,266.01 573.10,261.31 586.07,256.61 599.05,251.90 612.02,247.20 625.00,242.50 637.98,237.80 650.95,233.10 663.93,228.39 676.90,223.69 689.88,218.99 702.86,214.29 715.83,209.58 728.81,204.88 741.79,200.18 754.76,195.48 767.74,190.77 780.71,186.07 793.69,181.37 806.67,176.67 819.64,171.96 832.62,167.26 845.60,162.56 858.57,157.86 871.55,153.15 884.52,148.45 897.50,143.75 910.48,139.05 923.45,134.35 936.43,129.64 949.40,124.94 962.38,120.24 975.36,115.54 988.33,110.83 1001.31,106.13 1014.29,101.43 1027.26,96.73 1040.24,92.02 1053.21,87.32 1066.19,82.62 1079.17,77.92 1092.14,73.21 1105.12,68.51 1118.10,63.81 1131.07,59.11 1144.05,54.40 1157.02,49.70 1170.00,45.00" fill="none" stroke="#1f77b4" stroke-width="1.5"/>
<circle cx="80.00" cy="440.00" r="2.6" fill="red"/>
<circle cx="92.98" cy="435.30" r="2.6" fill="red"/>
<circle cx="105.95" cy="430.60" r="2.6" fill="red"/>
<circle cx="118.93" cy="425.89" r="2.6" fill="red"/>
<circle cx="131.90" cy="421.19" r="2.6" fill="red"/>
<circle cx="144.88" cy="416.49" r="2.6" fill="red"/>
<circle cx="157.86" cy="411.79" r="2.6" fill="red"/>
<circle cx="170.83" cy="407.08" r="2.6" fill="red"/>
<circle cx="183.81" cy="402.38" r="2.6" fill="red"/>
<circle cx="196.79" cy="397.68" r="2.6" fill="red"/>
<circle cx="209.76" cy="392.98" r="2.6" fill="red"/>
<circle cx="222.74" cy="388.27" r="2.6" fill="red"/>
<circle cx="235.71" cy="383.57" r="2.6" fill="red"/>
<circle cx="248.69" cy="378.87" r="2.6" fill="red"/>
<circle cx="261.67" cy="374.17" r="2.6" fill="red"/>
<circle cx="274.64" cy="369.46" r="2.6" fill="red"/>
<circle cx="287.62" cy="364.76" r="2.6" fill="red"/>
<circle cx="300.60" cy="360.06" r="2.6" fill="red"/>
<circle cx="313.57" cy="355.36" r="2.6" fill="red"/>
<circle cx="326.55" cy="350.65" r="2.6" fill="red"/>
<circle cx="339.52" cy="345.95" r="2.6" fill="red"/>
<circle cx="352.50" cy="341.25" r="2.6" fill="red"/>
<circle cx="365.48" cy="336.55" r="2.6" fill="red"/>
<circle cx="378.45" cy="331.85" r="2.6" fill="red"/>
<circle cx="391.43" cy="327.14" r="2.6" fill="red"/>
<circle cx="404.40" cy="322.44" r="2.6" fill="red"/>
<circle cx="417.38" cy="317.74" r="2.6" fill="red"/>
<circle cx="430.36" cy="313.04" r="2.6" fill="red"/>
<circle cx="443.33" cy="308.33" r="2.6" fill="red"/>
<circle cx="456.31" cy="303.63" r="2.6" fill="red"/>
<circle cx="469.29" cy="298.93" r="2.6" fill="red"/>
<circle cx="482.26" cy="294.23" r="2.6" fill="red"/>
<circle cx="495.24" cy="289.52" r="2.6" fill="red"/>
<circle cx="508.21" cy="284.82" r="2.6" fill="red"/>
<circle cx="521.19" cy="280.12" r="2.6" fill="red"/>
<circle cx="534.17" cy="275.42" r="2.6" fill="red"/>
<circle cx="547.14" cy="270.71" r="2.6" fill="red"/>
<circle cx="560.12" cy="266.01" r="2.6" fill="red"/>
<circle cx="573.10" cy="261.31" r="2.6" fill="red"/>
<circle cx="586.07" cy="256.61" r="2.6" fill="red"/>
<circle cx="599.05" cy="251.90" r="2.6" fill="red"/>
<circle cx="612.02" cy="247.20" r="2.6" fill="red"/>
<circle cx="625.00" cy="242.50" r="2.6" fill="red"/>
<circle cx="637.98" cy="237.80" r="2.6" fill="red"/>
<circle cx="650.95" cy="233.10" r="2.6" fill="red"/>
<circle cx="663.93" cy="228.39" r="2.6" fill="red"/>
<circle cx="676.90" cy="223.69" r="2.6" fill="red"/>
<circle cx="689.88" cy="218.99" r="2.6" fill="red"/>
<circle cx="702.86" cy="214.29" r="2.6" fill="red"/>
<circle cx="715.83" cy="209.58" r="2.6" fill="red"/>
<circle cx="728.81" cy="204.88" r="2.6" fill="red"/>
<circle cx="741.79" cy="200.18" r="2.6" fill="red"/>
<circle cx="754.76" cy="195.48" r="2.6" fill="red"/>
<circle cx="767.74" cy="190.77" r="2.6" fill="red"/>
<circle cx="780.71" cy="186.07" r="2.6" fill="red"/>
<circle cx="793.69" cy="181.37" r="2.6" fill="red"/>
<circle cx="806.67" cy="176.67" r="2.6" fill="red"/>
<circle cx="819.64" cy="171.96" r="2.6" fill="red"/>
<circle cx="832.62" cy="167.26" r="2.6" fill="red"/>
<circle cx="845.60" cy="162.56" r="2.6" fill="red"/>
<circle cx="858.57" cy="157.86" r="2.6" fill="red"/>
<circle cx="871.55" cy="153.15" r="2.6" fill="red"/>
<circle cx="884.52" cy="148.45" r="2.6" fill="red"/>
<circle cx="897.50" cy="143.75" r="2.6" fill="red"/>
<circle cx="910.48" cy="139.05" r="2.6" fill="red"/>
<circle cx="923.45" cy="134.35" r="2.6" fill="red"/>
<circle cx="936.43" cy="129.64" r="2.6" fill="red"/>
<circle cx="949.40" cy="124.94" r="2.6" fill="red"/>
<circle cx="962.38" cy="120.24" r="2.6" fill="red"/>
<circle cx="975.36" cy="115.54" r="2.6" fill="red"/>
<circle cx="988.33" cy="110.83" r="2.6" fill="red"/>
<circle cx="1001.31" cy="106.13" r="2.6" fill="red"/>
<circle cx="1014.29" cy="101.43" r="2.6" fill="red"/>
<circle cx="1027.26" cy="96.73" r="2.6" fill="red"/>
<circle cx="1040.24" cy="92.02" r="2.6" fill="red"/>
<circle cx="1053.21" cy="87.32" r="2.6" fill="red"/>
<circle cx="1066.19" cy="82.62" r="2.6" fill="red"/>
<circle cx="1079.17" cy="77.92" r="2.6" fill="red"/>
<circle cx="1092.14" cy="73.21" r="2.6" fill="red"/>
<circle cx="1105.12" cy="68.51" r="2.6" fill="red"/>
<circle cx="1118.10" cy="63.81" r="2.6" fill="red"/>
<circle cx="1131.07" cy="59.11" r="2.6" fill="red"/>
<circle cx="1144.05" cy="54.40" r="2.6" fill="red"/>
<circle cx="1157.02" cy="49.70" r="2.6" fill="red"/>
<circle cx="1170.00" cy="45.00" r="2.6" fill="red"/>
<text x="625" y="482" font-size="13" text-anchor="middle" font-family="Arial">timestamp / row index</text>
<text x="20" y="242" font-size="13" text-anchor="middle" transform="rotate(-90 20 242)" font-family="Arial">Time</text>
<line x1="930" y1="20" x2="960" y2="20" stroke="#1f77b4" stroke-width="2"/><text x="965" y="24" font-size="12" font-family="Arial">signal</text>
<circle cx="945" cy="38" r="3" fill="red"/><text x="965" y="42" font-size="12" font-family="Arial">flagged anomaly</text>
</svg>