<svg xmlns="http://www.w3.org/2000/svg" width="1200" height="500" viewBox="0 0 1200 500">
<rect width="100%" height="100%" fill="white"/>
<text x="80" y="28" font-size="18" font-family="Arial">Anomaly Overlay | baseline_run2_baseline_metrics.csv</text>
<rect x="80" y="45" width="1090" height="395" fill="none" stroke="#444" stroke-width="1"/>
<polyline points="80.00,440.00 93.62,435.06 107.25,430.12 120.88,425.19 134.50,420.25 148.12,415.31 161.75,410.38 175.38,405.44 189.00,400.50 202.62,395.56 216.25,390.62 229.88,385.69 243.50,380.75 257.12,375.81 270.75,370.88 284.38,365.94 298.00,361.00 311.62,356.06 325.25,351.12 338.88,346.19 352.50,341.25 366.12,336.31 379.75,331.38 393.38,326.44 407.00,321.50 420.62,316.56 434.25,311.62 447.88,306.69 461.50,301.75 475.12,296.81 488.75,291.88 502.38,286.94 516.00,282.00 529.62,277.06 543.25,272.12 556.88,267.19 570.50,262.25 584.12,257.31 597.75,252.38 611.38,247.44 625.00,242.50 638.62,237.56 652.25,232.62 665.88,227.69 679.50,222.75 693.12,217.81 706.75,212.88 720.38,207.94 734.00,203.00 747.62,198.06 761.25,193.12 774.88,188.19 788.50,183.25 802.12,178.31 815.75,173.38 829.38,168.44 843.00,163.50 856.62,158.56 870.25,153.62 883.88,148.69 897.50,143.75 911.12,138.81 924.75,133.88 938.38,128.94 952.00,124.00 965.62,119.06 979.25,114.12 992.88,109.19 1006.50,104.25 1020.12,99.31 1033.75,94.38 1047.38,89.44 1061.00,84.50 1074.62,79.56 1088.25,74.62 1101.88,69.69 1115.50,64.75 1129.12,59.81 1142.75,54.88 1156.38,49.94 1170.00,45.00" fill="none" stroke="#1f77b4" stroke-width="1.5"/>
<text x="625" y="482" font-size="13" text-anchor="middle" font-family="Arial">timestamp / row index</text>
<text x="20" y="242" font-size="13" text-anchor="middle" transform="rotate(-90 20 242)" font-family="Arial">Time</text>
<line x1="930" y1="20" x2="960" y2="20" stroke="#1f77b4" stroke-width="2"/><text x="965" y="24" font-size="12" font-family="Arial">signal</text>
<circle cx="945" cy="38" r="3" fill="red"/><text x="965" y="42" font-size="12" font-family="Arial">flagged anomaly</text>
</svg>