<svg xmlns="http://www.w3.org/2000/svg" width="1200" height="500" viewBox="0 0 1200 500">
<rect width="100%" height="100%" fill="white"/>
<text x="80" y="28" font-size="18" font-family="Arial">Anomaly Overlay | anomaly_io_1.csv</text>
<rect x="80" y="45" width="1090" height="395" fill="none" stroke="#444" stroke-width="1"/>
<polyline points="80.00,440.00 81.91,439.31 83.82,438.62 85.73,437.92 87.64,437.23 89.54,436.54 91.45,435.85 93.36,435.16 95.27,434.47 97.18,433.77 99.09,433.08 101.00,432.39 102.91,431.70 104.82,431.01 106.73,430.32 108.63,429.62 110.54,428.93 112.45,428.24 114.36,427.55 116.27,426.86 118.18,426.16 120.09,425.47 122.00,424.78 123.91,424.09 125.81,423.40 127.72,422.71 129.63,422.01 131.54,421.32 133.45,420.63 135.36,419.94 137.27,419.25 139.18,418.56 141.09,417.86 142.99,417.17 144.90,416.48 146.81,415.79 148.72,415.10 150.63,414.40 152.54,413.71 154.45,413.02 156.36,412.33 158.27,411.64 160.18,410.95 162.08,410.25 163.99,409.56 165.90,408.87 167.81,408.18 169.72,407.49 171.63,406.80 173.54,406.10 175.45,405.41 177.36,404.72 179.26,404.03 181.17,403.34 183.08,402.64 184.99,401.95 186.90,401.26 188.81,400.57 190.72,399.88 192.63,399.19 194.54,398.49 196.44,397.80 198.35,397.11 200.26,396.42 202.17,395.73 204.08,395.04 205.99,394.34 207.90,393.65 209.81,392.96 211.72,392.27 213.63,391.58 215.53,390.88 217.44,390.19 219.35,389.50 221.26,388.81 223.17,388.12 225.08,387.43 226.99,386.73 228.90,386.04 230.81,385.35 232.71,384.66 234.62,383.97 236.53,383.27 238.44,382.58 240.35,381.89 242.26,381.20 244.17,380.51 246.08,379.82 247.99,379.12 249.89,378.43 251.80,377.74 253.71,377.05 255.62,376.36 257.53,375.67 259.44,374.97 261.35,374.28 263.26,373.59 265.17,372.90 267.08,372.21 268.98,371.51 270.89,370.82 272.80,370.13 274.71,369.44 276.62,368.75 278.53,368.06 280.44,367.36 282.35,366.67 284.26,365.98 286.16,365.29 288.07,364.60 289.98,363.91 291.89,363.21 293.80,362.52 295.71,361.83 297.62,361.14 299.53,360.45 301.44,359.75 303.35,359.06 305.25,358.37 307.16,357.68 309.07,356.99 310.98,356.30 312.89,355.60 314.80,354.91 316.71,354.22 318.62,353.53 320.53,352.84 322.43,352.15 324.34,351.45 326.25,350.76 328.16,350.07 330.07,349.38 331.98,348.69 333.89,347.99 335.80,347.30 337.71,346.61 339.61,345.92 341.52,345.23 343.43,344.54 345.34,343.84 347.25,343.15 349.16,342.46 351.07,341.77 352.98,341.08 354.89,340.39 356.80,339.69 358.70,339.00 360.61,338.31 362.52,337.62 364.43,336.93 366.34,336.23 368.25,335.54 370.16,334.85 372.07,334.16 373.98,333.47 375.88,332.78 377.79,332.08 379.70,331.39 381.61,330.70 383.52,330.01 385.43,329.32 387.34,328.63 389.25,327.93 391.16,327.24 393.06,326.55 394.97,325.86 396.88,325.17 398.79,324.47 400.70,323.78 402.61,323.09 404.52,322.40 406.43,321.71 408.34,321.02 410.25,320.32 412.15,319.63 414.06,318.94 415.97,318.25 417.88,317.56 419.79,316.87 421.70,316.17 423.61,315.48 425.52,314.79 427.43,314.10 429.33,313.41 431.24,312.71 433.15,312.02 435.06,311.33 436.97,310.64 438.88,309.95 440.79,309.26 442.70,308.56 444.61,307.87 446.51,307.18 448.42,306.49 450.33,305.80 452.24,305.11 454.15,304.41 456.06,303.72 457.97,303.03 459.88,302.34 461.79,301.65 463.70,300.95 465.60,300.26 467.51,299.57 469.42,298.88 471.33,298.19 473.24,297.50 475.15,296.80 477.06,296.11 478.97,295.42 480.88,294.73 482.78,294.04 484.69,293.35 486.60,292.65 488.51,291.96 490.42,291.27 492.33,290.58 494.24,289.89 496.15,289.19 498.06,288.50 499.96,287.81 501.87,287.12 503.78,286.43 505.69,285.74 507.60,285.04 509.51,284.35 511.42,283.66 513.33,282.97 515.24,282.28 517.15,281.58 519.05,280.89 520.96,280.20 522.87,279.51 524.78,278.82 526.69,278.13 528.60,277.43 530.51,276.74 532.42,276.05 534.33,275.36 536.23,274.67 538.14,273.98 540.05,273.28 541.96,272.59 543.87,271.90 545.78,271.21 547.69,270.52 549.60,269.82 551.51,269.13 553.42,268.44 555.32,267.75 557.23,267.06 559.14,266.37 561.05,265.67 562.96,264.98 564.87,264.29 566.78,263.60 568.69,262.91 570.60,262.22 572.50,261.52 574.41,260.83 576.32,260.14 578.23,259.45 580.14,258.76 582.05,258.06 583.96,257.37 585.87,256.68 587.78,255.99 589.68,255.30 591.59,254.61 593.50,253.91 595.41,253.22 597.32,252.53 599.23,251.84 601.14,251.15 603.05,250.46 604.96,249.76 606.87,249.07 608.77,248.38 610.68,247.69 612.59,247.00 614.50,246.30 616.41,245.61 618.32,244.92 620.23,244.23 622.14,243.54 624.05,242.85 625.95,242.15 627.86,241.46 629.77,240.77 631.68,240.08 633.59,239.39 635.50,238.70 637.41,238.00 639.32,237.31 641.23,236.62 643.13,235.93 645.04,235.24 646.95,234.54 648.86,233.85 650.77,233.16 652.68,232.47 654.59,231.78 656.50,231.09 658.41,230.39 660.32,229.70 662.22,229.01 664.13,228.32 666.04,227.63 667.95,226.94 669.86,226.24 671.77,225.55 673.68,224.86 675.59,224.17 677.50,223.48 679.40,222.78 681.31,222.09 683.22,221.40 685.13,220.71 687.04,220.02 688.95,219.33 690.86,218.63 692.77,217.94 694.68,217.25 696.58,216.56 698.49,215.87 700.40,215.18 702.31,214.48 704.22,213.79 706.13,213.10 708.04,212.41 709.95,211.72 711.86,211.02 713.77,210.33 715.67,209.64 717.58,208.95 719.49,208.26 721.40,207.57 723.31,206.87 725.22,206.18 727.13,205.49 729.04,204.80 730.95,204.11 732.85,203.42 734.76,202.72 736.67,202.03 738.58,201.34 740.49,200.65 742.40,199.96 744.31,199.26 746.22,198.57 748.13,197.88 750.04,197.19 751.94,196.50 753.85,195.81 755.76,195.11 757.67,194.42 759.58,193.73 761.49,193.04 763.40,192.35 765.31,191.65 767.22,190.96 769.12,190.27 771.03,189.58 772.94,188.89 774.85,188.20 776.76,187.50 778.67,186.81 780.58,186.12 782.49,185.43 784.40,184.74 786.30,184.05 788.21,183.35 790.12,182.66 792.03,181.97 793.94,181.28 795.85,180.59 797.76,179.89 799.67,179.20 801.58,178.51 803.49,177.82 805.39,177.13 807.30,176.44 809.21,175.74 811.12,175.05 813.03,174.36 814.94,173.67 816.85,172.98 818.76,172.29 820.67,171.59 822.57,170.90 824.48,170.21 826.39,169.52 828.30,168.83 830.21,168.13 832.12,167.44 834.03,166.75 835.94,166.06 837.85,165.37 839.75,164.68 841.66,163.98 843.57,163.29 845.48,162.60 847.39,161.91 849.30,161.22 851.21,160.53 853.12,159.83 855.03,159.14 856.94,158.45 858.84,157.76 860.75,157.07 862.66,156.37 864.57,155.68 866.48,154.99 868.39,154.30 870.30,153.61 872.21,152.92 874.12,152.22 876.02,151.53 877.93,150.84 879.84,150.15 881.75,149.46 883.66,148.77 885.57,148.07 887.48,147.38 889.39,146.69 891.30,146.00 893.20,145.31 895.11,144.61 897.02,143.92 898.93,143.23 900.84,142.54 902.75,141.85 904.66,141.16 906.57,140.46 908.48,139.77 910.39,139.08 912.29,138.39 914.20,137.70 916.11,137.01 918.02,136.31 919.93,135.62 921.84,134.93 923.75,134.24 925.66,133.55 927.57,132.85 929.47,132.16 931.38,131.47 933.29,130.78 935.20,130.09 937.11,129.40 939.02,128.70 940.93,128.01 942.84,127.32 944.75,126.63 946.65,125.94 948.56,125.25 950.47,124.55 952.38,123.86 954.29,123.17 956.20,122.48 958.11,121.79 960.02,121.09 961.93,120.40 963.84,119.71 965.74,119.02 967.65,118.33 969.56,117.64 971.47,116.94 973.38,116.25 975.29,115.56 977.20,114.87 979.11,114.18 981.02,113.49 982.92,112.79 984.83,112.10 986.74,111.41 988.65,110.72 990.56,110.03 992.47,109.33 994.38,108.64 996.29,107.95 998.20,107.26 1000.11,106.57 1002.01,105.88 1003.92,105.18 1005.83,104.49 1007.74,103.80 1009.65,103.11 1011.56,102.42 1013.47,101.73 1015.38,101.03 1017.29,100.34 1019.19,99.65 1021.10,98.96 1023.01,98.27 1024.92,97.57 1026.83,96.88 1028.74,96.19 1030.65,95.50 1032.56,94.81 1034.47,94.12 1036.37,93.42 1038.28,92.73 1040.19,92.04 1042.10,91.35 1044.01,90.66 1045.92,89.96 1047.83,89.27 1049.74,88.58 1051.65,87.89 1053.56,87.20 1055.46,86.51 1057.37,85.81 1059.28,85.12 1061.19,84.43 1063.10,83.74 1065.01,83.05 1066.92,82.36 1068.83,81.66 1070.74,80.97 1072.64,80.28 1074.55,79.59 1076.46,78.90 1078.37,78.20 1080.28,77.51 1082.19,76.82 1084.10,76.13 1086.01,75.44 1087.92,74.75 1089.82,74.05 1091.73,73.36 1093.64,72.67 1095.55,71.98 1097.46,71.29 1099.37,70.60 1101.28,69.90 1103.19,69.21 1105.10,68.52 1107.01,67.83 1108.91,67.14 1110.82,66.44 1112.73,65.75 1114.64,65.06 1116.55,64.37 1118.46,63.68 1120.37,62.99 1122.28,62.29 1124.19,61.60 1126.09,60.91 1128.00,60.22 1129.91,59.53 1131.82,58.84 1133.73,58.14 1135.64,57.45 1137.55,56.76 1139.46,56.07 1141.37,55.38 1143.27,54.68 1145.18,53.99 1147.09,53.30 1149.00,52.61 1150.91,51.92 1152.82,51.23 1154.73,50.53 1156.64,49.84 1158.55,49.15 1160.46,48.46 1162.36,47.77 1164.27,47.08 1166.18,46.38 1168.09,45.69 1170.00,45.00" fill="none" stroke="#1f77b4" stroke-width="1.5"/>
<circle cx="80.00" cy="440.00" r="2.6" fill="red"/>
<circle cx="81.91" cy="439.31" r="2.6" fill="red"/>
<circle cx="83.82" cy="438.62" r="2.6" fill="red"/>
<circle cx="85.73" cy="437.92" r="2.6" fill="red"/>
<circle cx="87.64" cy="437.23" r="2.6" fill="red"/>
<circle cx="89.54" cy="436.54" r="2.6" fill="red"/>
<circle cx="91.45" cy="435.85" r="2.6" fill="red"/>
<circle cx="93.36" cy="435.16" r="2.6" fill="red"/>
<circle cx="95.27" cy="434.47" r="2.6" fill="red"/>
<circle cx="97.18" cy="433.77" r="2.6" fill="red"/>
<circle cx="99.09" cy="433.08" r="2.6" fill="red"/>
<circle cx="101.00" cy="432.39" r="2.6" fill="red"/>
<circle cx="102.91" cy="431.70" r="2.6" fill="red"/>
<circle cx="104.82" cy="431.01" r="2.6" fill="red"/>
<circle cx="106.73" cy="430.32" r="2.6" fill="red"/>
<circle cx="108.63" cy="429.62" r="2.6" fill="red"/>
<circle cx="110.54" cy="428.93" r="2.6" fill="red"/>
<circle cx="112.45" cy="428.24" r="2.6" fill="red"/>
<circle cx="114.36" cy="427.55" r="2.6" fill="red"/>
<circle cx="116.27" cy="426.86" r="2.6" fill="red"/>
<circle cx="118.18" cy="426.16" r="2.6" fill="red"/>
<circle cx="120.09" cy="425.47" r="2.6" fill="red"/>
<circle cx="122.00" cy="424.78" r="2.6" fill="red"/>
<circle cx="123.91" cy="424.09" r="2.6" fill="red"/>
<circle cx="125.81" cy="423.40" r="2.6" fill="red"/>
<circle cx="127.72" cy="422.71" r="2.6" fill="red"/>
<circle cx="129.63" cy="422.01" r="2.6" fill="red"/>
<circle cx="131.54" cy="421.32" r="2.6" fill="red"/>
<circle cx="133.45" cy="420.63" r="2.6" fill="red"/>
<circle cx="135.36" cy="419.94" r="2.6" fill="red"/>
<circle cx="137.27" cy="419.25" r="2.6" fill="red"/>
<circle cx="139.18" cy="418.56" r="2.6" fill="red"/>
<circle cx="141.09" cy="417.86" r="2.6" fill="red"/>
<circle cx="142.99" cy="417.17" r="2.6" fill="red"/>
<circle cx="144.90" cy="416.48" r="2.6" fill="red"/>
<circle cx="146.81" cy="415.79" r="2.6" fill="red"/>
<circle cx="148.72" cy="415.10" r="2.6" fill="red"/>
<circle cx="150.63" cy="414.40" r="2.6" fill="red"/>
<circle cx="152.54" cy="413.71" r="2.6" fill="red"/>
<circle cx="154.45" cy="413.02" r="2.6" fill="red"/>
<circle cx="156.36" cy="412.33" r="2.6" fill="red"/>
<circle cx="158.27" cy="411.64" r="2.6" fill="red"/>
<circle cx="160.18" cy="410.95" r="2.6" fill="red"/>
<circle cx="162.08" cy="410.25" r="2.6" fill="red"/>
<circle cx="163.99" cy="409.56" r="2.6" fill="red"/>
<circle cx="165.90" cy="408.87" r="2.6" fill="red"/>
<circle cx="167.81" cy="408.18" r="2.6" fill="red"/>
<circle cx="169.72" cy="407.49" r="2.6" fill="red"/>
<circle cx="171.63" cy="406.80" r="2.6" fill="red"/>
<circle cx="173.54" cy="406.10" r="2.6" fill="red"/>
<circle cx="175.45" cy="405.41" r="2.6" fill="red"/>
<circle cx="177.36" cy="404.72" r="2.6" fill="red"/>
<circle cx="179.26" cy="404.03" r="2.6" fill="red"/>
<circle cx="181.17" cy="403.34" r="2.6" fill="red"/>
<circle cx="183.08" cy="402.64" r="2.6" fill="red"/>
<circle cx="184.99" cy="401.95" r="2.6" fill="red"/>
<circle cx="186.90" cy="401.26" r="2.6" fill="red"/>
<circle cx="188.81" cy="400.57" r="2.6" fill="red"/>
<circle cx="190.72" cy="399.88" r="2.6" fill="red"/>
<circle cx="192.63" cy="399.19" r="2.6" fill="red"/>
<circle cx="194.54" cy="398.49" r="2.6" fill="red"/>
<circle cx="196.44" cy="397.80" r="2.6" fill="red"/>
<circle cx="198.35" cy="397.11" r="2.6" fill="red"/>
<circle cx="200.26" cy="396.42" r="2.6" fill="red"/>
<circle cx="202.17" cy="395.73" r="2.6" fill="red"/>
<circle cx="204.08" cy="395.04" r="2.6" fill="red"/>
<circle cx="205.99" cy="394.34" r="2.6" fill="red"/>
<circle cx="207.90" cy="393.65" r="2.6" fill="red"/>
<circle cx="209.81" cy="392.96" r="2.6" fill="red"/>
<circle cx="211.72" cy="392.27" r="2.6" fill="red"/>
<circle cx="213.63" cy="391.58" r="2.6" fill="red"/>
<circle cx="215.53" cy="390.88" r="2.6" fill="red"/>
<circle cx="217.44" cy="390.19" r="2.6" fill="red"/>
<circle cx="219.35" cy="389.50" r="2.6" fill="red"/>
<circle cx="221.26" cy="388.81" r="2.6" fill="red"/>
<circle cx="223.17" cy="388.12" r="2.6" fill="red"/>
<circle cx="225.08" cy="387.43" r="2.6" fill="red"/>
<circle cx="226.99" cy="386.73" r="2.6" fill="red"/>
<circle cx="228.90" cy="386.04" r="2.6" fill="red"/>
<circle cx="230.81" cy="385.35" r="2.6" fill="red"/>
<circle cx="232.71" cy="384.66" r="2.6" fill="red"/>
<circle cx="234.62" cy="383.97" r="2.6" fill="red"/>
<circle cx="236.53" cy="383.27" r="2.6" fill="red"/>
<circle cx="238.44" cy="382.58" r="2.6" fill="red"/>
<circle cx="240.35" cy="381.89" r="2.6" fill="red"/>
<circle cx="242.26" cy="381.20" r="2.6" fill="red"/>
<circle cx="244.17" cy="380.51" r="2.6" fill="red"/>
<circle cx="246.08" cy="379.82" r="2.6" fill="red"/>
<circle cx="247.99" cy="379.12" r="2.6" fill="red"/>
<circle cx="249.89" cy="378.43" r="2.6" fill="red"/>
<circle cx="251.80" cy="377.74" r="2.6" fill="red"/>
<circle cx="253.71" cy="377.05" r="2.6" fill="red"/>
<circle cx="255.62" cy="376.36" r="2.6" fill="red"/>
<circle cx="257.53" cy="375.67" r="2.6" fill="red"/>
<circle cx="259.44" cy="374.97" r="2.6" fill="red"/>
<circle cx="261.35" cy="374.28" r="2.6" fill="red"/>
<circle cx="263.26" cy="373.59" r="2.6" fill="red"/>
<circle cx="265.17" cy="372.90" r="2.6" fill="red"/>
<circle cx="267.08" cy="372.21" r="2.6" fill="red"/>
<circle cx="268.98" cy="371.51" r="2.6" fill="red"/>
<circle cx="270.89" cy="370.82" r="2.6" fill="red"/>
<circle cx="272.80" cy="370.13" r="2.6" fill="red"/>
<circle cx="274.71" cy="369.44" r="2.6" fill="red"/>
<circle cx="276.62" cy="368.75" r="2.6" fill="red"/>
<circle cx="278.53" cy="368.06" r="2.6" fill="red"/>
<circle cx="280.44" cy="367.36" r="2.6" fill="red"/>
<circle cx="282.35" cy="366.67" r="2.6" fill="red"/>
<circle cx="284.26" cy="365.98" r="2.6" fill="red"/>
<circle cx="286.16" cy="365.29" r="2.6" fill="red"/>
<circle cx="288.07" cy="364.60" r="2.6" fill="red"/>
<circle cx="289.98" cy="363.91" r="2.6" fill="red"/>
<circle cx="291.89" cy="363.21" r="2.6" fill="red"/>
<circle cx="293.80" cy="362.52" r="2.6" fill="red"/>
<circle cx="295.71" cy="361.83" r="2.6" fill="red"/>
<circle cx="297.62" cy="361.14" r="2.6" fill="red"/>
<circle cx="299.53" cy="360.45" r="2.6" fill="red"/>
<circle cx="301.44" cy="359.75" r="2.6" fill="red"/>
<circle cx="303.35" cy="359.06" r="2.6" fill="red"/>
<circle cx="305.25" cy="358.37" r="2.6" fill="red"/>
<circle cx="307.16" cy="357.68" r="2.6" fill="red"/>
<circle cx="309.07" cy="356.99" r="2.6" fill="red"/>
<circle cx="310.98" cy="356.30" r="2.6" fill="red"/>
<circle cx="312.89" cy="355.60" r="2.6" fill="red"/>
<circle cx="314.80" cy="354.91" r="2.6" fill="red"/>
<circle cx="316.71" cy="354.22" r="2.6" fill="red"/>
<circle cx="318.62" cy="353.53" r="2.6" fill="red"/>
<circle cx="320.53" cy="352.84" r="2.6" fill="red"/>
<circle cx="322.43" cy="352.15" r="2.6" fill="red"/>
<circle cx="324.34" cy="351.45" r="2.6" fill="red"/>
<circle cx="326.25" cy="350.76" r="2.6" fill="red"/>
<circle cx="328.16" cy="350.07" r="2.6" fill="red"/>
<circle cx="330.07" cy="349.38" r="2.6" fill="red"/>
<circle cx="331.98" cy="348.69" r="2.6" fill="red"/>
<circle cx="333.89" cy="347.99" r="2.6" fill="red"/>
<circle cx="335.80" cy="347.30" r="2.6" fill="red"/>
<circle cx="337.71" cy="346.61" r="2.6" fill="red"/>
<circle cx="339.61" cy="345.92" r="2.6" fill="red"/>
<circle cx="341.52" cy="345.23" r="2.6" fill="red"/>
<circle cx="343.43" cy="344.54" r="2.6" fill="red"/>
<circle cx="345.34" cy="343.84" r="2.6" fill="red"/>
<circle cx="347.25" cy="343.15" r="2.6" fill="red"/>
<circle cx="349.16" cy="342.46" r="2.6" fill="red"/>
<circle cx="351.07" cy="341.77" r="2.6" fill="red"/>
<circle cx="352.98" cy="341.08" r="2.6" fill="red"/>
<circle cx="354.89" cy="340.39" r="2.6" fill="red"/>
<circle cx="356.80" cy="339.69" r="2.6" fill="red"/>
<circle cx="358.70" cy="339.00" r="2.6" fill="red"/>
<circle cx="360.61" cy="338.31" r="2.6" fill="red"/>
<circle cx="362.52" cy="337.62" r="2.6" fill="red"/>
<circle cx="364.43" cy="336.93" r="2.6" fill="red"/>
<circle cx="366.34" cy="336.23" r="2.6" fill="red"/>
<circle cx="368.25" cy="335.54" r="2.6" fill="red"/>
<circle cx="370.16" cy="334.85" r="2.6" fill="red"/>
<circle cx="372.07" cy="334.16" r="2.6" fill="red"/>
<circle cx="373.98" cy="333.47" r="2.6" fill="red"/>
<circle cx="375.88" cy="332.78" r="2.6" fill="red"/>
<circle cx="377.79" cy="332.08" r="2.6" fill="red"/>
<circle cx="379.70" cy="331.39" r="2.6" fill="red"/>
<circle cx="381.61" cy="330.70" r="2.6" fill="red"/>
<circle cx="383.52" cy="330.01" r="2.6" fill="red"/>
<circle cx="385.43" cy="329.32" r="2.6" fill="red"/>
<circle cx="387.34" cy="328.63" r="2.6" fill="red"/>
<circle cx="389.25" cy="327.93" r="2.6" fill="red"/>
<circle cx="391.16" cy="327.24" r="2.6" fill="red"/>
<circle cx="393.06" cy="326.55" r="2.6" fill="red"/>
<circle cx="394.97" cy="325.86" r="2.6" fill="red"/>
<circle cx="396.88" cy="325.17" r="2.6" fill="red"/>
<circle cx="398.79" cy="324.47" r="2.6" fill="red"/>
<circle cx="400.70" cy="323.78" r="2.6" fill="red"/>
<circle cx="402.61" cy="323.09" r="2.6" fill="red"/>
<circle cx="404.52" cy="322.40" r="2.6" fill="red"/>
<circle cx="406.43" cy="321.71" r="2.6" fill="red"/>
<circle cx="408.34" cy="321.02" r="2.6" fill="red"/>
<circle cx="410.25" cy="320.32" r="2.6" fill="red"/>
<circle cx="412.15" cy="319.63" r="2.6" fill="red"/>
<circle cx="414.06" cy="318.94" r="2.6" fill="red"/>
<circle cx="415.97" cy="318.25" r="2.6" fill="red"/>
<circle cx="417.88" cy="317.56" r="2.6" fill="red"/>
<circle cx="419.79" cy="316.87" r="2.6" fill="red"/>
<circle cx="421.70" cy="316.17" r="2.6" fill="red"/>
<circle cx="423.61" cy="315.48" r="2.6" fill="red"/>
<circle cx="425.52" cy="314.79" r="2.6" fill="red"/>
<circle cx="427.43" cy="314.10" r="2.6" fill="red"/>
<circle cx="429.33" cy="313.41" r="2.6" fill="red"/>
<circle cx="431.24" cy="312.71" r="2.6" fill="red"/>
<circle cx="433.15" cy="312.02" r="2.6" fill="red"/>
<circle cx="435.06" cy="311.33" r="2.6" fill="red"/>
<circle cx="436.97" cy="310.64" r="2.6" fill="red"/>
<circle cx="438.88" cy="309.95" r="2.6" fill="red"/>
<circle cx="440.79" cy="309.26" r="2.6" fill="red"/>
<circle cx="442.70" cy="308.56" r="2.6" fill="red"/>
<circle cx="444.61" cy="307.87" r="2.6" fill="red"/>
<circle cx="446.51" cy="307.18" r="2.6" fill="red"/>
<circle cx="448.42" cy="306.49" r="2.6" fill="red"/>
<circle cx="450.33" cy="305.80" r="2.6" fill="red"/>
<circle cx="452.24" cy="305.11" r="2.6" fill="red"/>
<circle cx="454.15" cy="304.41" r="2.6" fill="red"/>
<circle cx="456.06" cy="303.72" r="2.6" fill="red"/>
<circle cx="457.97" cy="303.03" r="2.6" fill="red"/>
<circle cx="459.88" cy="302.34" r="2.6" fill="red"/>
<circle cx="461.79" cy="301.65" r="2.6" fill="red"/>
<circle cx="463.70" cy="300.95" r="2.6" fill="red"/>
<circle cx="465.60" cy="300.26" r="2.6" fill="red"/>
<circle cx="467.51" cy="299.57" r="2.6" fill="red"/>
<circle cx="469.42" cy="298.88" r="2.6" fill="red"/>
<circle cx="471.33" cy="298.19" r="2.6" fill="red"/>
<circle cx="473.24" cy="297.50" r="2.6" fill="red"/>
<circle cx="475.15" cy="296.80" r="2.6" fill="red"/>
<circle cx="477.06" cy="296.11" r="2.6" fill="red"/>
<circle cx="478.97" cy="295.42" r="2.6" fill="red"/>
<circle cx="480.88" cy="294.73" r="2.6" fill="red"/>
<circle cx="482.78" cy="294.04" r="2.6" fill="red"/>
<circle cx="484.69" cy="293.35" r="2.6" fill="red"/>
<circle cx="486.60" cy="292.65" r="2.6" fill="red"/>
<circle cx="488.51" cy="291.96" r="2.6" fill="red"/>
<circle cx="490.42" cy="291.27" r="2.6" fill="red"/>
<circle cx="492.33" cy="290.58" r="2.6" fill="red"/>
<circle cx="494.24" cy="289.89" r="2.6" fill="red"/>
<circle cx="496.15" cy="289.19" r="2.6" fill="red"/>
<circle cx="498.06" cy="288.50" r="2.6" fill="red"/>
<circle cx="499.96" cy="287.81" r="2.6" fill="red"/>
<circle cx="501.87" cy="287.12" r="2.6" fill="red"/>
<circle cx="503.78" cy="286.43" r="2.6" fill="red"/>
<circle cx="505.69" cy="285.74" r="2.6" fill="red"/>
<circle cx="507.60" cy="285.04" r="2.6" fill="red"/>
<circle cx="509.51" cy="284.35" r="2.6" fill="red"/>
<circle cx="511.42" cy="283.66" r="2.6" fill="red"/>
<circle cx="513.33" cy="282.97" r="2.6" fill="red"/>
<circle cx="515.24" cy="282.28" r="2.6" fill="red"/>
<circle cx="517.15" cy="281.58" r="2.6" fill="red"/>
<circle cx="519.05" cy="280.89" r="2.6" fill="red"/>
<circle cx="520.96" cy="280.20" r="2.6" fill="red"/>
<circle cx="522.87" cy="279.51" r="2.6" fill="red"/>
<circle cx="524.78" cy="278.82" r="2.6" fill="red"/>
<circle cx="526.69" cy="278.13" r="2.6" fill="red"/>
<circle cx="528.60" cy="277.43" r="2.6" fill="red"/>
<circle cx="530.51" cy="276.74" r="2.6" fill="red"/>
<circle cx="532.42" cy="276.05" r="2.6" fill="red"/>
<circle cx="534.33" cy="275.36" r="2.6" fill="red"/>
<circle cx="536.23" cy="274.67" r="2.6" fill="red"/>
<circle cx="538.14" cy="273.98" r="2.6" fill="red"/>
<circle cx="540.05" cy="273.28" r="2.6" fill="red"/>
<circle cx="541.96" cy="272.59" r="2.6" fill="red"/>
<circle cx="543.87" cy="271.90" r="2.6" fill="red"/>
<circle cx="545.78" cy="271.21" r="2.6" fill="red"/>
<circle cx="547.69" cy="270.52" r="2.6" fill="red"/>
<circle cx="549.60" cy="269.82" r="2.6" fill="red"/>
<circle cx="551.51" cy="269.13" r="2.6" fill="red"/>
<circle cx="553.42" cy="268.44" r="2.6" fill="red"/>
<circle cx="555.32" cy="267.75" r="2.6" fill="red"/>
<circle cx="557.23" cy="267.06" r="2.6" fill="red"/>
<circle cx="559.14" cy="266.37" r="2.6" fill="red"/>
<circle cx="561.05" cy="265.67" r="2.6" fill="red"/>
<circle cx="562.96" cy="264.98" r="2.6" fill="red"/>
<circle cx="564.87" cy="264.29" r="2.6" fill="red"/>
<circle cx="566.78" cy="263.60" r="2.6" fill="red"/>
<circle cx="568.69" cy="262.91" r="2.6" fill="red"/>
<circle cx="570.60" cy="262.22" r="2.6" fill="red"/>
<circle cx="572.50" cy="261.52" r="2.6" fill="red"/>
<circle cx="574.41" cy="260.83" r="2.6" fill="red"/>
<circle cx="576.32" cy="260.14" r="2.6" fill="red"/>
<circle cx="578.23" cy="259.45" r="2.6" fill="red"/>
<circle cx="580.14" cy="258.76" r="2.6" fill="red"/>
<circle cx="582.05" cy="258.06" r="2.6" fill="red"/>
<circle cx="583.96" cy="257.37" r="2.6" fill="red"/>
<circle cx="585.87" cy="256.68" r="2.6" fill="red"/>
<circle cx="587.78" cy="255.99" r="2.6" fill="red"/>
<circle cx="589.68" cy="255.30" r="2.6" fill="red"/>
<circle cx="591.59" cy="254.61" r="2.6" fill="red"/>
<circle cx="593.50" cy="253.91" r="2.6" fill="red"/>
<circle cx="595.41" cy="253.22" r="2.6" fill="red"/>
<circle cx="597.32" cy="252.53" r="2.6" fill="red"/>
<circle cx="599.23" cy="251.84" r="2.6" fill="red"/>
<circle cx="601.14" cy="251.15" r="2.6" fill="red"/>
<circle cx="603.05" cy="250.46" r="2.6" fill="red"/>
<circle cx="604.96" cy="249.76" r="2.6" fill="red"/>
<circle cx="606.87" cy="249.07" r="2.6" fill="red"/>
<circle cx="608.77" cy="248.38" r="2.6" fill="red"/>
<circle cx="610.68" cy="247.69" r="2.6" fill="red"/>
<circle cx="612.59" cy="247.00" r="2.6" fill="red"/>
<circle cx="614.50" cy="246.30" r="2.6" fill="red"/>
<circle cx="616.41" cy="245.61" r="2.6" fill="red"/>
<circle cx="618.32" cy="244.92" r="2.6" fill="red"/>
<circle cx="620.23" cy="244.23" r="2.6" fill="red"/>
<circle cx="622.14" cy="243.54" r="2.6" fill="red"/>
<circle cx="624.05" cy="242.85" r="2.6" fill="red"/>
<circle cx="625.95" cy="242.15" r="2.6" fill="red"/>
<circle cx="627.86" cy="241.46" r="2.6" fill="red"/>
<circle cx="629.77" cy="240.77" r="2.6" fill="red"/>
<circle cx="631.68" cy="240.08" r="2.6" fill="red"/>
<circle cx="633.59" cy="239.39" r="2.6" fill="red"/>
<circle cx="635.50" cy="238.70" r="2.6" fill="red"/>
<circle cx="637.41" cy="238.00" r="2.6" fill="red"/>
<circle cx="639.32" cy="237.31" r="2.6" fill="red"/>
<circle cx="641.23" cy="236.62" r="2.6" fill="red"/>
<circle cx="643.13" cy="235.93" r="2.6" fill="red"/>
<circle cx="645.04" cy="235.24" r="2.6" fill="red"/>
<circle cx="646.95" cy="234.54" r="2.6" fill="red"/>
<circle cx="648.86" cy="233.85" r="2.6" fill="red"/>
<circle cx="650.77" cy="233.16" r="2.6" fill="red"/>
<circle cx="652.68" cy="232.47" r="2.6" fill="red"/>
<circle cx="654.59" cy="231.78" r="2.6" fill="red"/>
<circle cx="656.50" cy="231.09" r="2.6" fill="red"/>
<circle cx="658.41" cy="230.39" r="2.6" fill="red"/>
<circle cx="660.32" cy="229.70" r="2.6" fill="red"/>
<circle cx="662.22" cy="229.01" r="2.6" fill="red"/>
<circle cx="664.13" cy="228.32" r="2.6" fill="red"/>
<circle cx="666.04" cy="227.63" r="2.6" fill="red"/>
<circle cx="667.95" cy="226.94" r="2.6" fill="red"/>
<circle cx="669.86" cy="226.24" r="2.6" fill="red"/>
<circle cx="671.77" cy="225.55" r="2.6" fill="red"/>
<circle cx="673.68" cy="224.86" r="2.6" fill="red"/>
<circle cx="675.59" cy="224.17" r="2.6" fill="red"/>
<circle cx="677.50" cy="223.48" r="2.6" fill="red"/>
<circle cx="679.40" cy="222.78" r="2.6" fill="red"/>
<circle cx="681.31" cy="222.09" r="2.6" fill="red"/>
<circle cx="683.22" cy="221.40" r="2.6" fill="red"/>
<circle cx="685.13" cy="220.71" r="2.6" fill="red"/>
<circle cx="687.04" cy="220.02" r="2.6" fill="red"/>
<circle cx="688.95" cy="219.33" r="2.6" fill="red"/>
<circle cx="690.86" cy="218.63" r="2.6" fill="red"/>
<circle cx="692.77" cy="217.94" r="2.6" fill="red"/>
<circle cx="694.68" cy="217.25" r="2.6" fill="red"/>
<circle cx="696.58" cy="216.56" r="2.6" fill="red"/>
<circle cx="698.49" cy="215.87" r="2.6" fill="red"/>
<circle cx="700.40" cy="215.18" r="2.6" fill="red"/>
<circle cx="702.31" cy="214.48" r="2.6" fill="red"/>
<circle cx="704.22" cy="213.79" r="2.6" fill="red"/>
<circle cx="706.13" cy="213.10" r="2.6" fill="red"/>
<circle cx="708.04" cy="212.41" r="2.6" fill="red"/>
<circle cx="709.95" cy="211.72" r="2.6" fill="red"/>
<circle cx="711.86" cy="211.02" r="2.6" fill="red"/>
<circle cx="713.77" cy="210.33" r="2.6" fill="red"/>
<circle cx="715.67" cy="209.64" r="2.6" fill="red"/>
<circle cx="717.58" cy="208.95" r="2.6" fill="red"/>
<circle cx="719.49" cy="208.26" r="2.6" fill="red"/>
<circle cx="721.40" cy="207.57" r="2.6" fill="red"/>
<circle cx="723.31" cy="206.87" r="2.6" fill="red"/>
<circle cx="725.22" cy="206.18" r="2.6" fill="red"/>
<circle cx="727.13" cy="205.49" r="2.6" fill="red"/>
<circle cx="729.04" cy="204.80" r="2.6" fill="red"/>
<circle cx="730.95" cy="204.11" r="2.6" fill="red"/>
<circle cx="732.85" cy="203.42" r="2.6" fill="red"/>
<circle cx="734.76" cy="202.72" r="2.6" fill="red"/>
<circle cx="736.67" cy="202.03" r="2.6" fill="red"/>
<circle cx="738.58" cy="201.34" r="2.6" fill="red"/>
<circle cx="740.49" cy="200.65" r="2.6" fill="red"/>
<circle cx="742.40" cy="199.96" r="2.6" fill="red"/>
<circle cx="744.31" cy="199.26" r="2.6" fill="red"/>
<circle cx="746.22" cy="198.57" r="2.6" fill="red"/>
<circle cx="748.13" cy="197.88" r="2.6" fill="red"/>
<circle cx="750.04" cy="197.19" r="2.6" fill="red"/>
<circle cx="751.94" cy="196.50" r="2.6" fill="red"/>
<circle cx="753.85" cy="195.81" r="2.6" fill="red"/>
<circle cx="755.76" cy="195.11" r="2.6" fill="red"/>
<circle cx="757.67" cy="194.42" r="2.6" fill="red"/>
<circle cx="759.58" cy="193.73" r="2.6" fill="red"/>
<circle cx="761.49" cy="193.04" r="2.6" fill="red"/>
<circle cx="763.40" cy="192.35" r="2.6" fill="red"/>
<circle cx="765.31" cy="191.65" r="2.6" fill="red"/>
<circle cx="767.22" cy="190.96" r="2.6" fill="red"/>
<circle cx="769.12" cy="190.27" r="2.6" fill="red"/>
<circle cx="771.03" cy="189.58" r="2.6" fill="red"/>
<circle cx="772.94" cy="188.89" r="2.6" fill="red"/>
<circle cx="774.85" cy="188.20" r="2.6" fill="red"/>
<circle cx="776.76" cy="187.50" r="2.6" fill="red"/>
<circle cx="778.67" cy="186.81" r="2.6" fill="red"/>
<circle cx="780.58" cy="186.12" r="2.6" fill="red"/>
<circle cx="782.49" cy="185.43" r="2.6" fill="red"/>
<circle cx="784.40" cy="184.74" r="2.6" fill="red"/>
<circle cx="786.30" cy="184.05" r="2.6" fill="red"/>
<circle cx="788.21" cy="183.35" r="2.6" fill="red"/>
<circle cx="790.12" cy="182.66" r="2.6" fill="red"/>
<circle cx="792.03" cy="181.97" r="2.6" fill="red"/>
<circle cx="793.94" cy="181.28" r="2.6" fill="red"/>
<circle cx="795.85" cy="180.59" r="2.6" fill="red"/>
<circle cx="797.76" cy="179.89" r="2.6" fill="red"/>
<circle cx="799.67" cy="179.20" r="2.6" fill="red"/>
<circle cx="801.58" cy="178.51" r="2.6" fill="red"/>
<circle cx="803.49" cy="177.82" r="2.6" fill="red"/>
<circle cx="805.39" cy="177.13" r="2.6" fill="red"/>
<circle cx="807.30" cy="176.44" r="2.6" fill="red"/>
<circle cx="809.21" cy="175.74" r="2.6" fill="red"/>
<circle cx="811.12" cy="175.05" r="2.6" fill="red"/>
<circle cx="813.03" cy="174.36" r="2.6" fill="red"/>
<circle cx="814.94" cy="173.67" r="2.6" fill="red"/>
<circle cx="816.85" cy="172.98" r="2.6" fill="red"/>
<circle cx="818.76" cy="172.29" r="2.6" fill="red"/>
<circle cx="820.67" cy="171.59" r="2.6" fill="red"/>
<circle cx="822.57" cy="170.90" r="2.6" fill="red"/>
<circle cx="824.48" cy="170.21" r="2.6" fill="red"/>
<circle cx="826.39" cy="169.52" r="2.6" fill="red"/>
<circle cx="828.30" cy="168.83" r="2.6" fill="red"/>
<circle cx="830.21" cy="168.13" r="2.6" fill="red"/>
<circle cx="832.12" cy="167.44" r="2.6" fill="red"/>
<circle cx="834.03" cy="166.75" r="2.6" fill="red"/>
<circle cx="835.94" cy="166.06" r="2.6" fill="red"/>
<circle cx="837.85" cy="165.37" r="2.6" fill="red"/>
<circle cx="839.75" cy="164.68" r="2.6" fill="red"/>
<circle cx="841.66" cy="163.98" r="2.6" fill="red"/>
<circle cx="843.57" cy="163.29" r="2.6" fill="red"/>
<circle cx="845.48" cy="162.60" r="2.6" fill="red"/>
<circle cx="847.39" cy="161.91" r="2.6" fill="red"/>
<circle cx="849.30" cy="161.22" r="2.6" fill="red"/>
<circle cx="851.21" cy="160.53" r="2.6" fill="red"/>
<circle cx="853.12" cy="159.83" r="2.6" fill="red"/>
<circle cx="855.03" cy="159.14" r="2.6" fill="red"/>
<circle cx="856.94" cy="158.45" r="2.6" fill="red"/>
<circle cx="858.84" cy="157.76" r="2.6" fill="red"/>
<circle cx="860.75" cy="157.07" r="2.6" fill="red"/>
<circle cx="862.66" cy="156.37" r="2.6" fill="red"/>
<circle cx="864.57" cy="155.68" r="2.6" fill="red"/>
<circle cx="866.48" cy="154.99" r="2.6" fill="red"/>
<circle cx="868.39" cy="154.30" r="2.6" fill="red"/>
<circle cx="870.30" cy="153.61" r="2.6" fill="red"/>
<circle cx="872.21" cy="152.92" r="2.6" fill="red"/>
<circle cx="874.12" cy="152.22" r="2.6" fill="red"/>
<circle cx="876.02" cy="151.53" r="2.6" fill="red"/>
<circle cx="877.93" cy="150.84" r="2.6" fill="red"/>
<circle cx="879.84" cy="150.15" r="2.6" fill="red"/>
<circle cx="881.75" cy="149.46" r="2.6" fill="red"/>
<circle cx="883.66" cy="148.77" r="2.6" fill="red"/>
<circle cx="885.57" cy="148.07" r="2.6" fill="red"/>
<circle cx="887.48" cy="147.38" r="2.6" fill="red"/>
<circle cx="889.39" cy="146.69" r="2.6" fill="red"/>
<circle cx="891.30" cy="146.00" r="2.6" fill="red"/>
<circle cx="893.20" cy="145.31" r="2.6" fill="red"/>
<circle cx="895.11" cy="144.61" r="2.6" fill="red"/>
<circle cx="897.02" cy="143.92" r="2.6" fill="red"/>
<circle cx="898.93" cy="143.23" r="2.6" fill="red"/>
<circle cx="900.84" cy="142.54" r="2.6" fill="red"/>
<circle cx="902.75" cy="141.85" r="2.6" fill="red"/>
<circle cx="904.66" cy="141.16" r="2.6" fill="red"/>
<circle cx="906.57" cy="140.46" r="2.6" fill="red"/>
<circle cx="908.48" cy="139.77" r="2.6" fill="red"/>
<circle cx="910.39" cy="139.08" r="2.6" fill="red"/>
<circle cx="912.29" cy="138.39" r="2.6" fill="red"/>
<circle cx="914.20" cy="137.70" r="2.6" fill="red"/>
<circle cx="916.11" cy="137.01" r="2.6" fill="red"/>
<circle cx="918.02" cy="136.31" r="2.6" fill="red"/>
<circle cx="919.93" cy="135.62" r="2.6" fill="red"/>
<circle cx="921.84" cy="134.93" r="2.6" fill="red"/>
<circle cx="923.75" cy="134.24" r="2.6" fill="red"/>
<circle cx="925.66" cy="133.55" r="2.6" fill="red"/>
<circle cx="927.57" cy="132.85" r="2.6" fill="red"/>
<circle cx="929.47" cy="132.16" r="2.6" fill="red"/>
<circle cx="931.38" cy="131.47" r="2.6" fill="red"/>
<circle cx="933.29" cy="130.78" r="2.6" fill="red"/>
<circle cx="935.20" cy="130.09" r="2.6" fill="red"/>
<circle cx="937.11" cy="129.40" r="2.6" fill="red"/>
<circle cx="939.02" cy="128.70" r="2.6" fill="red"/>
<circle cx="940.93" cy="128.01" r="2.6" fill="red"/>
<circle cx="942.84" cy="127.32" r="2.6" fill="red"/>
<circle cx="944.75" cy="126.63" r="2.6" fill="red"/>
<circle cx="946.65" cy="125.94" r="2.6" fill="red"/>
<circle cx="948.56" cy="125.25" r="2.6" fill="red"/>
<circle cx="950.47" cy="124.55" r="2.6" fill="red"/>
<circle cx="952.38" cy="123.86" r="2.6" fill="red"/>
<circle cx="954.29" cy="123.17" r="2.6" fill="red"/>
<circle cx="956.20" cy="122.48" r="2.6" fill="red"/>
<circle cx="958.11" cy="121.79" r="2.6" fill="red"/>
<circle cx="960.02" cy="121.09" r="2.6" fill="red"/>
<circle cx="961.93" cy="120.40" r="2.6" fill="red"/>
<circle cx="963.84" cy="119.71" r="2.6" fill="red"/>
<circle cx="965.74" cy="119.02" r="2.6" fill="red"/>
<circle cx="967.65" cy="118.33" r="2.6" fill="red"/>
<circle cx="969.56" cy="117.64" r="2.6" fill="red"/>
<circle cx="971.47" cy="116.94" r="2.6" fill="red"/>
<circle cx="973.38" cy="116.25" r="2.6" fill="red"/>
<circle cx="975.29" cy="115.56" r="2.6" fill="red"/>
<circle cx="977.20" cy="114.87" r="2.6" fill="red"/>
<circle cx="979.11" cy="114.18" r="2.6" fill="red"/>
<circle cx="981.02" cy="113.49" r="2.6" fill="red"/>
<circle cx="982.92" cy="112.79" r="2.6" fill="red"/>
<circle cx="984.83" cy="112.10" r="2.6" fill="red"/>
<circle cx="986.74" cy="111.41" r="2.6" fill="red"/>
<circle cx="988.65" cy="110.72" r="2.6" fill="red"/>
<circle cx="990.56" cy="110.03" r="2.6" fill="red"/>
<circle cx="992.47" cy="109.33" r="2.6" fill="red"/>
<circle cx="994.38" cy="108.64" r="2.6" fill="red"/>
<circle cx="996.29" cy="107.95" r="2.6" fill="red"/>
<circle cx="998.20" cy="107.26" r="2.6" fill="red"/>
<circle cx="1000.11" cy="106.57" r="2.6" fill="red"/>
<circle cx="1002.01" cy="105.88" r="2.6" fill="red"/>
<circle cx="1003.92" cy="105.18" r="2.6" fill="red"/>
<circle cx="1005.83" cy="104.49" r="2.6" fill="red"/>
<circle cx="1007.74" cy="103.80" r="2.6" fill="red"/>
<circle cx="1009.65" cy="103.11" r="2.6" fill="red"/>
<circle cx="1011.56" cy="102.42" r="2.6" fill="red"/>
<circle cx="1013.47" cy="101.73" r="2.6" fill="red"/>
<circle cx="1015.38" cy="101.03" r="2.6" fill="red"/>
<circle cx="1017.29" cy="100.34" r="2.6" fill="red"/>
<circle cx="1019.19" cy="99.65" r="2.6" fill="red"/>
<circle cx="1021.10" cy="98.96" r="2.6" fill="red"/>
<circle cx="1023.01" cy="98.27" r="2.6" fill="red"/>
<circle cx="1024.92" cy="97.57" r="2.6" fill="red"/>
<circle cx="1026.83" cy="96.88" r="2.6" fill="red"/>
<circle cx="1028.74" cy="96.19" r="2.6" fill="red"/>
<circle cx="1030.65" cy="95.50" r="2.6" fill="red"/>
<circle cx="1032.56" cy="94.81" r="2.6" fill="red"/>
<circle cx="1034.47" cy="94.12" r="2.6" fill="red"/>
<circle cx="1036.37" cy="93.42" r="2.6" fill="red"/>
<circle cx="1038.28" cy="92.73" r="2.6" fill="red"/>
<circle cx="1040.19" cy="92.04" r="2.6" fill="red"/>
<circle cx="1042.10" cy="91.35" r="2.6" fill="red"/>
<circle cx="1044.01" cy="90.66" r="2.6" fill="red"/>
<circle cx="1045.92" cy="89.96" r="2.6" fill="red"/>
<circle cx="1047.83" cy="89.27" r="2.6" fill="red"/>
<circle cx="1049.74" cy="88.58" r="2.6" fill="red"/>
<circle cx="1051.65" cy="87.89" r="2.6" fill="red"/>
<circle cx="1053.56" cy="87.20" r="2.6" fill="red"/>
<circle cx="1055.46" cy="86.51" r="2.6" fill="red"/>
<circle cx="1057.37" cy="85.81" r="2.6" fill="red"/>
<circle cx="1059.28" cy="85.12" r="2.6" fill="red"/>
<circle cx="1061.19" cy="84.43" r="2.6" fill="red"/>
<circle cx="1063.10" cy="83.74" r="2.6" fill="red"/>
<circle cx="1065.01" cy="83.05" r="2.6" fill="red"/>
<circle cx="1066.92" cy="82.36" r="2.6" fill="red"/>
<circle cx="1068.83" cy="81.66" r="2.6" fill="red"/>
<circle cx="1070.74" cy="80.97" r="2.6" fill="red"/>
<circle cx="1072.64" cy="80.28" r="2.6" fill="red"/>
<circle cx="1074.55" cy="79.59" r="2.6" fill="red"/>
<circle cx="1076.46" cy="78.90" r="2.6" fill="red"/>
<circle cx="1078.37" cy="78.20" r="2.6" fill="red"/>
<circle cx="1080.28" cy="77.51" r="2.6" fill="red"/>
<circle cx="1082.19" cy="76.82" r="2.6" fill="red"/>
<circle cx="1084.10" cy="76.13" r="2.6" fill="red"/>
<circle cx="1086.01" cy="75.44" r="2.6" fill="red"/>
<circle cx="1087.92" cy="74.75" r="2.6" fill="red"/>
<circle cx="1089.82" cy="74.05" r="2.6" fill="red"/>
<circle cx="1091.73" cy="73.36" r="2.6" fill="red"/>
<circle cx="1093.64" cy="72.67" r="2.6" fill="red"/>
<circle cx="1095.55" cy="71.98" r="2.6" fill="red"/>
<circle cx="1097.46" cy="71.29" r="2.6" fill="red"/>
<circle cx="1099.37" cy="70.60" r="2.6" fill="red"/>
<circle cx="1101.28" cy="69.90" r="2.6" fill="red"/>
<circle cx="1103.19" cy="69.21" r="2.6" fill="red"/>
<circle cx="1105.10" cy="68.52" r="2.6" fill="red"/>
<circle cx="1107.01" cy="67.83" r="2.6" fill="red"/>
<circle cx="1108.91" cy="67.14" r="2.6" fill="red"/>
<circle cx="1110.82" cy="66.44" r="2.6" fill="red"/>
<circle cx="1112.73" cy="65.75" r="2.6" fill="red"/>
<circle cx="1114.64" cy="65.06" r="2.6" fill="red"/>
<circle cx="1116.55" cy="64.37" r="2.6" fill="red"/>
<circle cx="1118.46" cy="63.68" r="2.6" fill="red"/>
<circle cx="1120.37" cy="62.99" r="2.6" fill="red"/>
<circle cx="1122.28" cy="62.29" r="2.6" fill="red"/>
<circle cx="1124.19" cy="61.60" r="2.6" fill="red"/>
<circle cx="1126.09" cy="60.91" r="2.6" fill="red"/>
<circle cx="1128.00" cy="60.22" r="2.6" fill="red"/>
<circle cx="1129.91" cy="59.53" r="2.6" fill="red"/>
<circle cx="1131.82" cy="58.84" r="2.6" fill="red"/>
<circle cx="1133.73" cy="58.14" r="2.6" fill="red"/>
<circle cx="1135.64" cy="57.45" r="2.6" fill="red"/>
<circle cx="1137.55" cy="56.76" r="2.6" fill="red"/>
<circle cx="1139.46" cy="56.07" r="2.6" fill="red"/>
<circle cx="1141.37" cy="55.38" r="2.6" fill="red"/>
<circle cx="1143.27" cy="54.68" r="2.6" fill="red"/>
<circle cx="1145.18" cy="53.99" r="2.6" fill="red"/>
<circle cx="1147.09" cy="53.30" r="2.6" fill="red"/>
<circle cx="1149.00" cy="52.61" r="2.6" fill="red"/>
<circle cx="1150.91" cy="51.92" r="2.6" fill="red"/>
<circle cx="1152.82" cy="51.23" r="2.6" fill="red"/>
<circle cx="1154.73" cy="50.53" r="2.6" fill="red"/>
<circle cx="1156.64" cy="49.84" r="2.6" fill="red"/>
<circle cx="1158.55" cy="49.15" r="2.6" fill="red"/>
<circle cx="1160.46" cy="48.46" r="2.6" fill="red"/>
<circle cx="1162.36" cy="47.77" r="2.6" fill="red"/>
<circle cx="1164.27" cy="47.08" r="2.6" fill="red"/>
<circle cx="1166.18" cy="46.38" r="2.6" fill="red"/>
<circle cx="1168.09" cy="45.69" r="2.6" fill="red"/>
<circle cx="1170.00" cy="45.00" r="2.6" fill="red"/>
<text x="625" y="482" font-size="13" text-anchor="middle" font-family="Arial">timestamp / row index</text>
<text x="20" y="242" font-size="13" text-anchor="middle" transform="rotate(-90 20 242)" font-family="Arial">Time</text>
<line x1="930" y1="20" x2="960" y2="20" stroke="#1f77b4" stroke-width="2"/><text x="965" y="24" font-size="12" font-family="Arial">signal</text>
<circle cx="945" cy="38" r="3" fill="red"/><text x="965" y="42" font-size="12" font-family="Arial">flagged anomaly</text>
</svg>