<svg xmlns="http://www.w3.org/2000/svg" width="1200" height="500" viewBox="0 0 1200 500">
<rect width="100%" height="100%" fill="white"/>
<text x="80" y="28" font-size="18" font-family="Arial">Anomaly Overlay | baseline_run1_baseline_metrics.csv</text>
<rect x="80" y="45" width="1090" height="395" fill="none" stroke="#444" stroke-width="1"/>
<polyline points="80.00,440.00 94.73,434.66 109.46,429.32 124.19,423.99 138.92,418.65 153.65,413.31 168.38,407.97 183.11,402.64 197.84,397.30 212.57,391.96 227.30,386.62 242.03,381.28 256.76,375.95 271.49,370.61 286.22,365.27 300.95,359.93 315.68,354.59 330.41,349.26 345.14,343.92 359.86,338.58 374.59,333.24 389.32,327.91 404.05,322.57 418.78,317.23 433.51,311.89 448.24,306.55 462.97,301.22 477.70,295.88 492.43,290.54 507.16,285.20 521.89,279.86 536.62,274.53 551.35,269.19 566.08,263.85 580.81,258.51 595.54,253.18 610.27,247.84 625.00,242.50 639.73,237.16 654.46,231.82 669.19,226.49 683.92,221.15 698.65,215.81 713.38,210.47 728.11,205.14 742.84,199.80 757.57,194.46 772.30,189.12 787.03,183.78 801.76,178.45 816.49,173.11 831.22,167.77 845.95,162.43 860.68,157.09 875.41,151.76 890.14,146.42 904.86,141.08 919.59,135.74 934.32,130.41 949.05,125.07 963.78,119.73 978.51,114.39 993.24,109.05 1007.97,103.72 1022.70,98.38 1037.43,93.04 1052.16,87.70 1066.89,82.36 1081.62,77.03 1096.35,71.69 1111.08,66.35 1125.81,61.01 1140.54,55.68 1155.27,50.34 1170.00,45.00" fill="none" stroke="#1f77b4" stroke-width="1.5"/>
<text x="625" y="482" font-size="13" text-anchor="middle" font-family="Arial">timestamp / row index</text>
<text x="20" y="242" font-size="13" text-anchor="middle" transform="rotate(-90 20 242)" font-family="Arial">Time</text>
<line x1="930" y1="20" x2="960" y2="20" stroke="#1f77b4" stroke-width="2"/><text x="965" y="24" font-size="12" font-family="Arial">signal</text>
<circle cx="945" cy="38" r="3" fill="red"/><text x="965" y="42" font-size="12" font-family="Arial">flagged anomaly</text>
</svg>